Coordinates
version=1
nRows=26
nColumns=27
inDegrees=yes

Units are S.I. units (second, meters, Newtons, ...)
If the header above contains a line with 'inDegrees', this indicates whether rotational values are in degrees (yes) or radians (no).

endheader
time	r_x	r_y	r_z	t_x	t_y	t_z	sternoclavicular_r2	sternoclavicular_r3	unrotscap_r3	unrotscap_r2	acromioclavicular_r2	acromioclavicular_r3	acromioclavicular_r1	unrothum_r1	unrothum_r3	unrothum_r2	elv_angle	shoulder_elv	shoulder1_r2	shoulder_rot	elbow_flexion	pro_sup	deviation	flexion	wrist_hand_r1	wrist_hand_r3
      2.50000000	     44.97761239	     86.65797346	    -34.67383427	      0.44401778	      1.24499153	     -0.19949557	    -13.04371009	      5.52469997	     -5.52469997	     13.04371009	     -2.64108596	     21.34432774	      9.59412842	     -9.59412842	    -21.34432774	      2.64108596	     22.91617652	     53.89950767	    -22.91617652	     21.82920818	    106.96067822	     79.44262994	     -0.09749285	     -0.10080334	     -8.02664046	     -2.88780302
      2.51000000	     46.27578108	     86.61995900	    -35.99212473	      0.44409101	      1.24496963	     -0.19944785	    -13.02803832	      5.51806214	     -5.51806214	     13.02803832	     -2.63791275	     21.31868294	      9.58260126	     -9.58260126	    -21.31868294	      2.63791275	     22.79249701	     53.83474843	    -22.79249701	     22.03524045	    106.86140301	     79.91047900	     -0.09477422	     -0.10969525	     -7.79071255	     -3.14253748
      2.52000000	     46.44412351	     86.58788949	    -36.17338539	      0.44415214	      1.24490326	     -0.19937776	    -12.98870257	      5.50140138	     -5.50140138	     12.98870257	     -2.62994806	     21.25431512	      9.55366837	     -9.55366837	    -21.25431512	      2.62994806	     22.74956197	     53.67220438	    -22.74956197	     22.16938193	    106.66196521	     80.00760220	     -0.10844596	     -0.11801421	     -8.98411732	     -3.38085805
      2.53000000	     47.29693904	     86.58199084	    -37.02543819	      0.44420324	      1.24487334	     -0.19931549	    -12.96804721	      5.49265274	     -5.49265274	     12.96804721	     -2.62576577	     21.22051533	      9.53847560	     -9.53847560	    -21.22051533	      2.62576577	     22.59086353	     53.58685185	    -22.59086353	     22.49735840	    106.56540797	     80.75655764	     -0.08748156	     -0.13638287	     -7.16129614	     -3.90708144
      2.54000000	     47.90445414	     86.60745457	    -37.60341074	      0.44418901	      1.24487167	     -0.19922853	    -12.92326338	      5.47368442	     -5.47368442	     12.92326338	     -2.61669795	     21.14723243	      9.50553544	     -9.50553544	    -21.14723243	      2.61669795	     22.41167959	     53.40179510	    -22.41167959	     22.69482824	    106.29638881	     80.55362442	     -0.08750152	     -0.16764511	     -7.16304898	     -4.80267867
      2.55000000	     47.96958028	     86.51315867	    -37.71626569	      0.44436380	      1.24476362	     -0.19920605	    -12.90611784	      5.46642238	     -5.46642238	     12.90611784	     -2.61322633	     21.11917600	      9.49292427	     -9.49292427	    -21.11917600	      2.61322633	     22.43411150	     53.33094594	    -22.43411150	     22.93662419	    106.24914208	     81.46802278	     -0.08575946	     -0.16154393	     -7.01343345	     -4.62789265
      2.56000000	     48.11325039	     86.42696901	    -37.87760800	      0.44451449	      1.24468761	     -0.19916535	    -12.88282151	      5.45655516	     -5.45655516	     12.88282151	     -2.60850930	     21.08105460	      9.47578896	     -9.47578896	    -21.08105460	      2.60850930	     22.44576027	     53.23468032	    -22.44576027	     23.15606478	    106.04486402	     81.46830600	     -0.09542764	     -0.17113034	     -7.84735102	     -4.90252315
      2.57000000	     49.32264880	     86.44380710	    -39.09114768	      0.44456298	      1.24466906	     -0.19910045	    -12.85282554	      5.44385028	     -5.44385028	     12.85282554	     -2.60243572	     21.03197010	      9.45372582	     -9.45372582	    -21.03197010	      2.60243572	     22.20000120	     53.11073029	    -22.20000120	     23.33619320	    106.00897710	     82.02710097	     -0.08045560	     -0.17975068	     -6.55966336	     -5.14947778
      2.58000000	     50.17690240	     86.37056774	    -39.95492171	      0.44471344	      1.24462526	     -0.19905873	    -12.83133758	      5.43474899	     -5.43474899	     12.83133758	     -2.59808485	     20.99680786	      9.43792063	     -9.43792063	    -20.99680786	      2.59808485	     22.10098548	     53.02193726	    -22.10098548	     23.48347220	    105.90444306	     82.09288067	     -0.08737725	     -0.18284046	     -7.15235864	     -5.23799338
      2.59000000	     50.69350183	     86.32854803	    -40.47148418	      0.44482827	      1.24458647	     -0.19901628	    -12.80485766	      5.42353335	     -5.42353335	     12.80485766	     -2.59272320	     20.95347693	      9.41844367	     -9.41844367	    -20.95347693	      2.59272320	     21.96724179	     52.91251635	    -21.96724179	     23.71576773	    105.80196497	     82.30423392	     -0.08004138	     -0.19276898	     -6.52429851	     -5.52242437
      2.60000000	     51.52715620	     86.26984771	    -41.30165752	      0.44500201	      1.24454262	     -0.19897104	    -12.77348795	      5.41024662	     -5.41024662	     12.77348795	     -2.58637148	     20.90214450	      9.39537010	     -9.39537010	    -20.90214450	      2.58637148	     21.82080095	     52.78288975	    -21.82080095	     23.78555336	    105.75382370	     82.32186015	     -0.09214112	     -0.18692318	     -7.56289253	     -5.35495462
      2.61000000	     52.01878157	     86.21161858	    -41.79471741	      0.44514467	      1.24450058	     -0.19894427	    -12.75188343	      5.40109597	     -5.40109597	     12.75188343	     -2.58199700	     20.86679153	      9.37947918	     -9.37947918	    -20.86679153	      2.58199700	     21.69497175	     52.69361508	    -21.69497175	     24.06844109	    105.64005010	     82.50208996	     -0.07972064	     -0.20081596	     -6.49699572	     -5.75295336
      2.62000000	     52.80466192	     86.09183056	    -42.59750730	      0.44534978	      1.24447012	     -0.19892550	    -12.73593609	      5.39434142	     -5.39434142	     12.73593609	     -2.57876799	     20.84069579	      9.36774933	     -9.36774933	    -20.84069579	      2.57876799	     21.63290875	     52.62771711	    -21.63290875	     24.20416726	    105.48806735	     82.23081875	     -0.09517792	     -0.20529512	     -7.82570053	     -5.88127190
      2.63000000	     53.42925900	     86.06935381	    -43.18658757	      0.44547893	      1.24443461	     -0.19888429	    -12.68214804	      5.37155934	     -5.37155934	     12.68214804	     -2.56787700	     20.75267867	      9.32818624	     -9.32818624	    -20.75267867	      2.56787700	     21.42016754	     52.40545294	    -21.42016754	     24.16395531	    105.42924289	     81.85907360	     -0.11970266	     -0.19641878	     -9.97984869	     -5.62698346
      2.64000000	     52.88742664	     85.94800872	    -42.66853191	      0.44570961	      1.24436273	     -0.19891361	    -12.65449638	      5.35984741	     -5.35984741	     12.65449638	     -2.56227810	     20.70743034	      9.30784743	     -9.30784743	    -20.70743034	      2.56227810	     21.41922452	     52.29119015	    -21.41922452	     24.46605315	    105.33268354	     82.02719808	     -0.11532495	     -0.19399783	     -9.59120926	     -5.55762846
      2.65000000	     50.27181333	     85.90287070	    -40.07732070	      0.44593097	      1.24420595	     -0.19894095	    -12.58960073	      5.33236067	     -5.33236067	     12.58960073	     -2.54913806	     20.60123709	      9.26011429	     -9.26011429	    -20.60123709	      2.54913806	     21.52737302	     52.02302691	    -21.52737302	     24.95782348	    105.14506529	     82.53562571	     -0.09091588	     -0.20851510	     -7.45708449	     -5.97351765
      2.66000000	     51.47968783	     85.86649086	    -41.23815939	      0.44604795	      1.24425595	     -0.19894860	    -12.56348216	      5.32129808	     -5.32129808	     12.56348216	     -2.54384958	     20.55849746	      9.24090312	     -9.24090312	    -20.55849746	      2.54384958	     21.19434448	     51.91509918	    -21.19434448	     25.16686454	    105.15144821	     82.75393992	     -0.08111894	     -0.20969799	     -6.61627518	     -6.00740476
      2.67000000	     51.71692288	     85.79580701	    -41.47443063	      0.44622275	      1.24421842	     -0.19896469	    -12.52821502	      5.30636058	     -5.30636058	     12.52821502	     -2.53670870	     20.50078739	      9.21496284	     -9.21496284	    -20.50078739	      2.53670870	     21.04328618	     51.76936752	    -21.04328618	     25.33550774	    105.06647554	     82.75375790	     -0.08678201	     -0.20609859	     -7.10120031	     -5.90428983
      2.68000000	     51.42984880	     85.71700564	    -41.18091792	      0.44638283	      1.24416385	     -0.19896624	    -12.49433819	      5.29201196	     -5.29201196	     12.49433819	     -2.52984933	     20.44535239	      9.19004519	     -9.19004519	    -20.44535239	      2.52984933	     20.93950947	     51.62938095	    -20.93950947	     25.63593888	    104.91100384	     82.80954796	     -0.08177359	     -0.21221705	     -6.67218211	     -6.07957062
      2.69000000	     51.81391105	     85.64683239	    -41.56515537	      0.44654195	      1.24413381	     -0.19898338	    -12.46142355	      5.27807087	     -5.27807087	     12.46142355	     -2.52318478	     20.39149187	      9.16583526	     -9.16583526	    -20.39149187	      2.52318478	     20.76617083	     51.49337031	    -20.76617083	     25.79980517	    104.79637365	     82.74262661	     -0.08845957	     -0.20984473	     -7.24544969	     -6.01160865
      2.70000000	     54.35127473	     85.60112061	    -44.06249897	      0.44661803	      1.24417357	     -0.19891049	    -12.45836538	      5.27677557	     -5.27677557	     12.45836538	     -2.52256557	     20.38648759	      9.16358587	     -9.16358587	    -20.38648759	      2.52256557	     20.34094202	     51.48073331	    -20.34094202	     25.83845450	    104.77668902	     82.65089592	     -0.09521360	     -0.20338372	     -7.82877749	     -5.82651446
      2.71000000	     51.52605272	     85.49977038	    -41.27594189	      0.44685277	      1.24404453	     -0.19902117	    -12.39886993	      5.25157611	     -5.25157611	     12.39886993	     -2.51051895	     20.28913104	      9.11982477	     -9.11982477	    -20.28913104	      2.51051895	     20.50869830	     51.23488486	    -20.50869830	     26.38971469	    104.45626749	     82.77712641	     -0.07962812	     -0.21967337	     -6.48907907	     -6.29317843
      2.72000000	     51.27443844	     85.45702387	    -41.02580302	      0.44699015	      1.24398251	     -0.19904560	    -12.34343549	      5.22809669	     -5.22809669	     12.34343549	     -2.49929460	     20.19841983	      9.07905070	     -9.07905070	    -20.19841983	      2.49929460	     20.34870773	     51.00581745	    -20.34870773	     26.47306428	    104.31871415	     82.64648034	     -0.09561652	     -0.20899665	     -7.86373549	     -5.98731285
      2.73000000	     50.56218513	     85.39594074	    -40.32846218	      0.44710141	      1.24389532	     -0.19909906	    -12.30797268	      5.21307632	     -5.21307632	     12.30797268	     -2.49211410	     20.14038957	      9.05296650	     -9.05296650	    -20.14038957	      2.49211410	     20.26817338	     50.85927723	    -20.26817338	     26.84202212	    104.08739186	     82.79128152	     -0.08209766	     -0.22083229	     -6.69985776	     -6.32637897
      2.74000000	     51.35212590	     85.29103048	    -41.13476610	      0.44722528	      1.24383384	     -0.19909847	    -12.31202364	      5.21479212	     -5.21479212	     12.31202364	     -2.49293434	     20.14701844	      9.05594613	     -9.05594613	    -20.14701844	      2.49293434	     20.13387903	     50.87601671	    -20.13387903	     27.18234819	    103.85421429	     82.68910569	     -0.07293858	     -0.23223952	     -5.92105034	     -6.65317212
      2.75000000	     50.18557846	     85.27745715	    -39.96534625	      0.44732728	      1.24376729	     -0.19914966	    -12.23713650	      5.18307346	     -5.18307346	     12.23713650	     -2.47777122	     20.02447543	      9.00086389	     -9.00086389	    -20.02447543	      2.47777122	     20.00986739	     50.56656643	    -20.00986739	     27.33352536	    103.67302904	     82.63010787	     -0.08217922	     -0.22339972	     -6.70684085	     -6.39993069
